<?xml version="1.0" standalone="no"?>
<!DOCTYPE svg PUBLIC "-//W3C//DTD SVG 20010904//EN"
 "http://www.w3.org/TR/2001/REC-SVG-20010904/DTD/svg10.dtd">
<svg version="1.0" xmlns="http://www.w3.org/2000/svg"
 width="260.000000pt" height="260.000000pt" viewBox="0 0 260.000000 260.000000"
 preserveAspectRatio="xMidYMid meet">
<metadata>
Created by potrace 1.14, written by Peter Selinger 2001-2017
</metadata>
<g transform="translate(0.000000,260.000000) scale(0.100000,-0.100000)"
fill="#000000" stroke="none">
<path d="M969 2278 c-1 -7 -2 -32 -3 -55 0 -23 -4 -44 -7 -48 -4 -3 -63 -6
-132 -6 l-125 1 0 -61 c1 -35 -4 -64 -10 -68 -6 -4 -34 -6 -62 -5 -28 0 -53
-3 -57 -9 -3 -5 -6 -35 -7 -66 l-1 -55 -58 -2 c-31 0 -61 -4 -65 -8 -4 -4 -7
-65 -7 -134 l0 -126 -63 1 -62 1 0 -334 0 -334 60 0 c33 0 61 -3 61 -7 1 -5 2
-60 3 -123 1 -64 5 -121 9 -127 5 -8 30 -12 65 -11 l57 2 3 -67 3 -67 64 0
c45 0 65 -4 66 -12 0 -7 0 -37 -1 -65 -1 -38 2 -53 12 -54 7 0 26 -2 41 -3 16
-1 31 2 33 6 3 4 11 5 19 2 8 -3 47 -6 87 -7 l73 -2 0 -62 -1 -63 337 0 336 0
-1 56 c-1 30 3 59 9 63 5 4 63 7 128 7 65 -1 121 2 123 6 3 4 5 33 6 65 l2 58
66 5 65 5 -2 63 c-2 69 -8 64 79 64 26 0 48 5 51 12 2 6 3 61 2 121 -1 61 1
116 3 123 3 7 16 12 31 12 14 -1 41 -2 59 -1 l32 1 0 334 0 334 -60 -1 c-47
-2 -60 1 -61 13 -1 8 -2 65 -3 125 0 61 -4 115 -8 121 -4 6 -29 10 -55 9 -68
-3 -71 0 -71 58 0 29 0 57 -1 63 -1 7 -25 10 -63 10 l-63 -1 -2 45 c-3 101 14
89 -135 92 l-133 3 1 58 0 57 -333 0 c-259 0 -333 -3 -334 -12z"/>
</g>
</svg>
